# Blender v3.1.2 OBJ File: 'gummybear.blend'
# www.blender.org
mtllib gummybear.mtl
o Cube
v 0.606960 0.967186 0.000000
v 0.465940 -0.981687 0.000000
v 0.585735 0.000000 0.000000
v 0.539295 0.957785 0.416196
v 0.465940 -0.965771 -0.466037
v 0.539295 0.957785 -0.416196
v 0.465940 -0.965771 0.466037
v 0.465940 0.000000 0.448335
v 0.465940 0.000000 -0.448335
v 0.552165 -0.500000 0.000000
v 0.705692 0.500000 0.000000
v 0.465940 0.500000 -0.397930
v 0.465940 -0.500000 -0.496264
v 0.465940 -0.500000 0.496264
v 0.465940 0.500000 0.397930
v 0.552704 0.948178 -0.250000
v 0.465940 -1.000000 0.250000
v 0.712207 -0.117615 -0.201036
v 0.493941 -0.750000 0.000000
v 0.513820 0.250000 0.000000
v 0.314319 0.967186 0.000000
v 0.552704 0.948178 0.250000
v 0.465940 -1.000000 -0.250000
v 0.712207 -0.117615 0.201036
v 0.552165 -0.250000 0.000000
v 0.617221 0.750000 0.000000
v 0.314319 -0.981687 0.000000
v 0.314319 0.957785 -0.416196
v 0.314319 -0.965771 -0.466037
v 0.554845 0.500000 -0.250000
v 0.465940 0.250000 -0.500000
v 0.450484 0.750000 -0.465226
v 0.548828 -0.500000 -0.250000
v 0.465940 -0.750000 -0.500000
v 0.422414 -0.250000 -0.467743
v 0.548828 -0.500000 0.250000
v 0.465940 -0.750000 0.500000
v 0.422414 -0.250000 0.467743
v 0.554845 0.500000 0.250000
v 0.465940 0.250000 0.500000
v 0.450484 0.750000 0.465226
v 0.314319 0.957785 0.416196
v 0.314319 0.500000 0.397930
v 0.314319 0.000000 0.448335
v 0.314319 -0.500000 0.496264
v 0.314319 -0.965771 0.466037
v 0.314319 0.500000 -0.397930
v 0.314319 0.000000 -0.448335
v 0.314319 -0.500000 -0.496264
v 0.314319 -0.750000 -0.500000
v 0.314319 -0.250000 -0.467743
v 0.314319 0.250000 -0.500000
v 0.281235 0.750000 -0.465226
v 0.314319 -0.750000 0.500000
v 0.314319 -0.250000 0.467743
v 0.314319 0.250000 0.500000
v 0.314319 -1.000000 0.250000
v 0.487782 0.750000 0.250000
v 0.549879 0.250000 0.250000
v 0.465940 -0.250000 0.250000
v 0.753388 -0.822316 0.374918
v 0.753388 -0.822316 -0.374918
v 0.549879 0.250000 -0.250000
v 0.314319 0.948178 0.250000
v 0.314319 0.948178 -0.250000
v 0.314319 -1.000000 -0.250000
v 0.487782 0.750000 -0.250000
v 0.465940 -0.250000 -0.250000
v 0.281235 0.750000 0.465226
v -0.250000 -0.965771 0.466037
v -0.250000 -0.500000 0.496264
v -0.250000 -0.750000 0.500000
v -0.250000 -0.965771 -0.466037
v -0.250000 -0.500000 -0.496264
v -0.250000 -0.750000 -0.500000
v -0.250000 0.967186 0.000000
v -0.250000 0.957785 -0.416196
v -0.250000 0.957785 0.416196
v -0.250000 0.500000 0.397930
v -0.250000 0.000000 0.448335
v -0.250000 0.500000 -0.397930
v -0.250000 0.000000 -0.448335
v -0.250000 -0.250000 0.467743
v -0.250000 0.250000 -0.500000
v -0.243837 0.750000 -0.465226
v -0.250000 0.250000 0.500000
v -0.243837 0.750000 0.465226
v -0.250000 0.948178 0.250000
v -0.250000 0.948178 -0.250000
v -0.250000 -0.250000 -0.467743
v -0.250000 -0.981687 0.000000
v -0.250000 -1.000000 -0.250000
v -0.250000 -1.000000 0.250000
v 0.458227 -0.167984 -0.386993
v 0.458227 -0.167984 0.386993
vt 0.500000 0.625000
vt 0.468750 0.625000
vt 0.500000 0.593750
vt 0.625000 0.625000
vt 0.593750 0.625000
vt 0.625000 0.593750
vt 0.343750 0.625000
vt 0.343750 0.593750
vt 0.375000 0.593750
vt 0.312500 0.343750
vt 0.625000 0.687500
vt 0.656250 0.656250
vt 0.562500 0.625000
vt 0.531250 0.593750
vt 0.562500 0.593750
vt 0.437500 0.625000
vt 0.406250 0.593750
vt 0.437500 0.593750
vt 0.437500 0.687500
vt 0.406250 0.656250
vt 0.437500 0.656250
vt 0.468750 0.687500
vt 0.484375 0.671875
vt 0.500000 0.687500
vt 0.562500 0.687500
vt 0.531250 0.687500
vt 0.562500 0.656250
vt 0.593750 0.656250
vt 0.625000 0.656250
vt 0.000000 0.000000
vt 0.000000 0.000000
vt 0.281250 0.343750
vt 0.562500 0.562500
vt 0.468750 0.421875
vt 0.593750 0.562500
vt 0.406250 0.562500
vt 0.218750 0.281250
vt 0.437500 0.562500
vt 0.375000 0.562500
vt 0.281250 0.421875
vt 0.343750 0.562500
vt 0.109375 0.281250
vt 0.468750 0.562500
vt 0.250000 0.281250
vt 0.500000 0.562500
vt 0.234375 0.281250
vt 0.531250 0.562500
vt 0.281250 0.281250
vt 0.265625 0.281250
vt 0.000000 0.000000
vt 0.625000 0.562500
vt 0.656250 0.562500
vt 0.406250 0.687500
vt 0.203125 0.343750
vt 0.375000 0.687500
vt 0.218750 0.343750
vt 0.046875 0.171875
vt 0.093750 0.343750
vt 0.234375 0.343750
vt 0.250000 0.343750
vt 0.265625 0.343750
vt 0.375000 0.625000
vt 0.375000 0.656250
vt 0.593750 0.687500
vt 0.500000 0.656250
vt 0.531250 0.656250
vt 0.531250 0.625000
vt 0.468750 0.656250
vt 0.406250 0.625000
vt 0.656250 0.625000
vt 0.781250 0.656250
vt 0.781250 0.687500
vt 0.656250 0.593750
vt 0.593750 0.593750
vt 0.468750 0.593750
vt 0.296875 0.343750
vt 0.203125 0.171875
vt 0.343750 0.656250
vt 0.187500 0.343750
vt 0.000000 0.000000
vt 0.781250 0.625000
vt 0.000000 0.000000
vt 0.000000 0.000000
vt 0.390625 0.281250
vt 0.000000 0.000000
vt 0.000000 0.000000
vt 0.781250 0.593750
vt 0.781250 0.562500
vt 0.000000 0.000000
vt 0.000000 0.000000
vt 0.000000 0.000000
vt 0.000000 0.000000
vt 0.000000 0.000000
vt 0.218750 0.562500
vt 0.484375 0.578125
vn 0.8114 -0.1090 0.5742
vn 0.9755 0.0461 -0.2152
vn 0.0000 -0.9973 0.0731
vn 0.0000 0.9983 -0.0577
vn 0.8561 -0.0170 -0.5166
vn 0.8423 0.5389 -0.0112
vn 0.7673 0.5870 0.2582
vn 0.9505 -0.1441 0.2752
vn 0.8388 0.2058 0.5041
vn 0.9461 -0.3099 0.0942
vn 0.0000 0.3780 0.9258
vn 0.0000 -0.2599 -0.9656
vn 0.0000 0.0149 -0.9999
vn 0.0000 -0.1555 -0.9878
vn 0.0000 0.0774 -0.9970
vn 0.0000 0.1133 -0.9936
vn 0.0000 0.3780 -0.9258
vn 0.0000 -0.2024 -0.9793
vn 0.0000 0.2297 -0.9733
vn 0.0000 -0.1555 0.9878
vn 0.0000 0.0149 0.9999
vn 0.0000 0.1133 0.9936
vn 0.0000 0.0774 0.9970
vn 0.0000 -0.2024 0.9793
vn 0.0000 -0.9973 -0.0731
vn 0.9526 0.2555 0.1651
vn 0.8472 0.2998 0.4386
vn 0.9755 0.0461 0.2152
vn 0.8873 0.3521 0.2979
vn 0.9005 0.4149 -0.1299
vn 0.8561 -0.0170 0.5166
vn 0.9454 0.0000 0.3261
vn 0.8114 -0.1090 -0.5742
vn 0.3639 -0.1448 0.9201
vn 0.5439 -0.8369 -0.0613
vn 0.8423 0.5389 0.0112
vn 0.8094 -0.0978 0.5790
vn 0.4769 -0.8681 -0.1375
vn 0.7673 0.5870 -0.2582
vn 0.8787 0.2528 0.4049
vn 0.8873 0.3521 -0.2979
vn 0.8388 0.2058 -0.5041
vn 0.0000 0.9971 0.0758
vn 0.0000 0.9971 -0.0758
vn 0.0000 0.9983 0.0577
vn 0.0000 -0.9877 -0.1565
vn 0.8472 0.2998 -0.4386
vn 0.9526 0.2555 -0.1651
vn 0.9461 -0.3099 -0.0942
vn 0.9454 0.0000 -0.3261
vn 0.9628 0.1896 -0.1925
vn 0.4888 -0.7361 0.4682
vn 0.0000 -0.2599 0.9656
vn 0.0000 0.2297 0.9733
vn 0.0000 -0.9877 0.1565
vn -0.9996 -0.0292 -0.0017
vn 0.4019 0.0137 -0.9156
vn 0.7912 -0.1843 0.5831
vn 0.5439 -0.8369 0.0613
vn 0.3639 -0.1448 -0.9201
vn 0.7912 -0.1843 -0.5831
vn 0.8094 -0.0978 -0.5790
vn 0.4019 0.0137 0.9156
vn 0.4769 -0.8681 0.1375
vn 0.8787 0.2528 -0.4049
vn 0.4926 -0.8535 0.1699
vn 0.6017 -0.2982 0.7410
vn 0.6635 -0.1514 0.7327
vn 0.9005 0.4149 0.1299
vn 0.6635 -0.1514 -0.7327
vn 0.9505 -0.1441 -0.2752
vn 0.4926 -0.8535 -0.1699
vn 0.6017 -0.2982 -0.7410
vn 0.4888 -0.7361 -0.4682
vn 0.9546 -0.2289 0.1908
vn 0.9546 -0.2289 -0.1908
vn 0.9042 0.2998 0.3043
vn 0.9628 0.1896 0.1925
vn 0.9042 0.2998 -0.3043
vn 0.9208 -0.3559 0.1596
vn 0.9208 -0.3559 -0.1596
vn 0.8540 -0.0854 0.5132
vn 0.8540 -0.0854 -0.5132
vn 0.7882 -0.6049 0.1137
vn 0.7882 -0.6049 -0.1137
vn 0.8345 0.2239 0.5035
vn 0.8345 0.2239 -0.5035
vn 0.9478 -0.0188 0.3182
vn 0.9478 -0.0188 -0.3182
vn 0.8527 -0.2793 -0.4415
vn 0.8527 -0.2793 0.4415
vn 0.9491 0.3147 0.0127
vn 0.9491 0.3147 -0.0127
vn -0.9994 -0.0339 0.0026
vn -0.9996 -0.0292 0.0017
vn -0.9994 -0.0339 -0.0026
vn -0.9996 0.0187 -0.0220
vn -0.9996 0.0187 0.0220
vn -1.0000 0.0000 0.0000
usemtl Material
s off
f 3/1/1 25/2/1 18/3/1
f 1/4/2 26/5/2 16/6/2
f 27/7/3 66/8/3 23/9/3
f 42/10/4 4/11/4 64/12/4
f 11/13/5 63/14/5 30/15/5
f 10/16/6 62/17/6 33/18/6
f 14/19/7 61/20/7 36/21/7
f 38/22/8 95/23/8 8/24/8
f 15/25/9 40/26/9 39/27/9
f 4/11/10 58/28/10 22/29/10
f 79/30/11 86/31/11 43/32/11
f 12/33/12 53/34/12 32/35/12
f 34/36/13 49/37/13 13/38/13
f 34/36/14 5/39/14 50/40/14
f 29/41/14 75/42/14 50/40/14
f 35/43/15 48/44/15 9/45/15
f 35/43/16 13/38/16 51/46/16
f 31/47/17 47/48/17 12/33/17
f 31/47/18 9/45/18 52/49/18
f 81/50/17 47/48/17 52/49/17
f 6/51/19 32/35/19 28/52/19
f 37/53/20 54/54/20 7/55/20
f 37/53/21 45/56/21 54/54/21
f 72/57/20 70/58/20 54/54/20
f 45/56/22 14/19/22 55/59/22
f 55/59/23 38/22/23 44/60/23
f 56/61/24 44/60/24 8/24/24
f 40/26/11 43/32/11 56/61/11
f 2/62/25 17/63/25 27/7/25
f 41/64/26 39/27/26 58/28/26
f 11/13/27 26/5/27 58/28/27
f 22/29/28 26/5/28 1/4/28
f 40/26/29 24/65/29 59/66/29
f 59/66/30 24/65/30 20/67/30
f 39/27/31 59/66/31 11/13/31
f 10/16/32 25/2/32 60/68/32
f 24/65/33 25/2/33 3/1/33
f 37/53/34 7/55/34 61/20/34
f 17/63/35 2/62/35 61/20/35
f 36/21/36 61/20/36 10/16/36
f 19/69/37 2/62/37 62/17/37
f 23/9/38 5/39/38 62/17/38
f 33/18/39 62/17/39 13/38/39
f 3/1/40 18/3/40 20/67/40
f 63/14/41 18/3/41 31/47/41
f 30/15/42 31/47/42 12/33/42
f 1/4/43 21/70/43 22/29/43
f 64/12/4 88/71/4 78/72/4
f 21/70/44 16/6/44 65/73/44
f 6/51/45 28/52/45 65/73/45
f 5/39/46 23/9/46 29/41/46
f 26/5/47 11/13/47 67/74/47
f 67/74/48 30/15/48 32/35/48
f 16/6/49 67/74/49 6/51/49
f 25/2/50 10/16/50 68/75/50
f 13/38/51 35/43/51 68/75/51
f 60/68/52 24/65/52 95/23/52
f 43/32/53 15/25/53 69/76/53
f 41/64/54 4/11/54 42/10/54
f 87/77/53 79/30/53 69/76/53
f 57/78/55 46/79/55 93/80/55
f 21/70/43 76/81/43 88/71/43
f 84/82/18 52/49/18 48/44/18
f 48/44/15 51/46/15 82/83/15
f 47/48/12 85/84/12 53/34/12
f 80/85/23 83/86/23 44/60/23
f 56/61/24 86/31/24 80/85/24
f 78/72/54 87/77/54 42/10/54
f 65/73/45 28/52/45 89/87/45
f 53/34/19 77/88/19 28/52/19
f 83/86/22 71/89/22 55/59/22
f 71/89/21 72/57/21 45/56/21
f 51/46/16 49/37/16 90/90/16
f 50/40/13 74/91/13 49/37/13
f 85/84/56 89/87/56 77/88/56
f 57/78/25 91/92/25 27/7/25
f 27/7/3 92/93/3 66/8/3
f 66/8/46 73/94/46 29/41/46
f 17/63/55 7/55/55 46/79/55
f 34/36/57 13/38/57 62/17/57
f 19/69/58 62/17/58 10/16/58
f 23/9/59 62/17/59 2/62/59
f 5/39/60 34/36/60 62/17/60
f 19/69/61 10/16/61 61/20/61
f 2/62/62 19/69/62 61/20/62
f 37/53/63 61/20/63 14/19/63
f 17/63/64 61/20/64 7/55/64
f 3/1/65 20/67/65 24/65/65
f 25/2/66 24/65/66 60/68/66
f 8/24/67 95/23/67 24/65/67
f 24/65/68 40/26/68 8/24/68
f 20/67/69 18/3/69 63/14/69
f 9/45/70 31/47/70 18/3/70
f 35/43/71 9/45/71 94/95/71
f 68/75/72 18/3/72 25/2/72
f 18/3/73 94/95/73 9/45/73
f 68/75/74 94/95/74 18/3/74
f 60/68/75 95/23/75 38/22/75
f 68/75/76 35/43/76 94/95/76
f 36/21/77 60/68/77 14/19/77
f 38/22/78 14/19/78 60/68/78
f 33/18/79 13/38/79 68/75/79
f 41/64/80 58/28/80 4/11/80
f 32/35/81 6/51/81 67/74/81
f 39/27/82 41/64/82 15/25/82
f 12/33/83 32/35/83 30/15/83
f 20/67/84 63/14/84 11/13/84
f 20/67/85 11/13/85 59/66/85
f 39/27/86 11/13/86 58/28/86
f 30/15/87 67/74/87 11/13/87
f 59/66/88 39/27/88 40/26/88
f 31/47/89 30/15/89 63/14/89
f 65/73/44 89/87/44 76/81/44
f 16/6/45 6/51/45 65/73/45
f 22/29/4 64/12/4 4/11/4
f 16/6/44 21/70/44 1/4/44
f 64/12/43 22/29/43 21/70/43
f 67/74/90 16/6/90 26/5/90
f 26/5/91 22/29/91 58/28/91
f 42/10/54 69/76/54 41/64/54
f 53/34/19 28/52/19 32/35/19
f 47/48/12 53/34/12 12/33/12
f 47/48/17 31/47/17 52/49/17
f 48/44/18 52/49/18 9/45/18
f 48/44/15 35/43/15 51/46/15
f 49/37/16 51/46/16 13/38/16
f 50/40/13 49/37/13 34/36/13
f 29/41/14 50/40/14 5/39/14
f 29/41/46 23/9/46 66/8/46
f 23/9/3 2/62/3 27/7/3
f 27/7/25 17/63/25 57/78/25
f 46/79/55 57/78/55 17/63/55
f 54/54/20 46/79/20 7/55/20
f 37/53/21 14/19/21 45/56/21
f 38/22/22 55/59/22 14/19/22
f 38/22/23 8/24/23 44/60/23
f 40/26/24 56/61/24 8/24/24
f 43/32/11 40/26/11 15/25/11
f 41/64/53 69/76/53 15/25/53
f 28/52/45 77/88/45 89/87/45
f 77/88/19 53/34/19 85/84/19
f 85/84/12 47/48/12 81/50/12
f 52/49/17 84/82/17 81/50/17
f 84/82/18 48/44/18 82/83/18
f 82/83/15 51/46/15 90/90/15
f 90/90/16 49/37/16 74/91/16
f 75/42/13 74/91/13 50/40/13
f 29/41/14 73/94/14 75/42/14
f 73/94/46 66/8/46 92/93/46
f 92/93/3 27/7/3 91/92/3
f 91/92/25 57/78/25 93/80/25
f 70/58/55 93/80/55 46/79/55
f 54/54/20 70/58/20 46/79/20
f 45/56/21 72/57/21 54/54/21
f 55/59/22 71/89/22 45/56/22
f 44/60/23 83/86/23 55/59/23
f 44/60/24 56/61/24 80/85/24
f 56/61/11 43/32/11 86/31/11
f 43/32/53 69/76/53 79/30/53
f 69/76/54 42/10/54 87/77/54
f 78/72/4 42/10/4 64/12/4
f 64/12/43 21/70/43 88/71/43
f 76/81/44 21/70/44 65/73/44
f 36/21/92 10/16/92 60/68/92
f 33/18/93 68/75/93 10/16/93
f 89/87/94 85/84/94 76/81/94
f 78/72/95 88/71/95 87/77/95
f 88/71/96 76/81/96 87/77/96
f 85/84/97 81/50/97 76/81/97
f 87/77/98 76/81/98 79/30/98
f 76/81/99 81/50/99 79/30/99
f 84/82/99 82/83/99 81/50/99
f 86/31/99 79/30/99 80/85/99
f 79/30/99 81/50/99 80/85/99
f 82/83/99 80/85/99 81/50/99
f 82/83/99 90/90/99 80/85/99
f 80/85/99 90/90/99 83/86/99
f 90/90/99 74/91/99 83/86/99
f 83/86/99 74/91/99 71/89/99
f 74/91/99 75/42/99 71/89/99
f 71/89/99 75/42/99 72/57/99
f 73/94/99 92/93/99 75/42/99
f 72/57/99 93/80/99 70/58/99
f 93/80/99 72/57/99 91/92/99
f 92/93/99 91/92/99 75/42/99
f 72/57/99 75/42/99 91/92/99
